<?xml version="1.0" standalone="no"?>
<!DOCTYPE svg PUBLIC "-//W3C//DTD SVG 20010904//EN"
 "http://www.w3.org/TR/2001/REC-SVG-20010904/DTD/svg10.dtd">
<svg version="1.0" xmlns="http://www.w3.org/2000/svg"
 width="300.000000pt" height="281.000000pt" viewBox="0 0 300.000000 281.000000"
 preserveAspectRatio="xMidYMid meet">
<metadata>
Created by potrace 1.10, written by Peter Selinger 2001-2011
</metadata>
<g transform="translate(0.000000,281.000000) scale(0.100000,-0.100000)"
fill="#FFFFFF" stroke="none">
<path d="M801 2739 c35 -87 36 -96 4 -111 -14 -6 -37 -32 -52 -57 -23 -39 -26
-54 -23 -111 2 -36 4 -81 4 -102 1 -20 4 -39 8 -43 4 -4 1 -16 -5 -26 -10 -16
-9 -25 6 -50 12 -21 17 -52 17 -99 0 -59 -3 -72 -22 -90 -13 -11 -33 -23 -45
-26 -13 -4 -23 -13 -23 -21 0 -8 -15 -32 -32 -53 -28 -34 -39 -40 -73 -40 -60
0 -83 -9 -89 -35 -4 -17 -14 -25 -34 -27 -19 -2 -28 -9 -30 -25 -2 -13 2 -23
9 -23 8 0 8 -4 -1 -15 -9 -10 -11 -33 -7 -71 5 -49 2 -65 -27 -127 -18 -40
-42 -77 -53 -84 -11 -6 -23 -24 -26 -40 -3 -16 -16 -40 -29 -54 -51 -55 -51
-55 -34 -88 24 -45 20 -53 -18 -50 -22 2 -42 -3 -54 -14 -19 -17 -21 -17 -53
2 -19 12 -41 21 -50 21 -9 0 -28 9 -43 21 -15 12 -24 15 -21 7 6 -15 54 -42
95 -54 14 -4 31 -14 37 -23 12 -14 15 -14 32 7 14 16 30 22 59 22 35 0 41 -3
47 -27 3 -16 22 -62 41 -104 19 -42 34 -86 34 -97 0 -24 16 -37 25 -22 9 15
25 2 18 -16 -7 -19 24 -54 48 -54 16 0 17 -4 8 -26 -12 -34 -4 -61 22 -69 11
-4 31 -24 44 -46 14 -21 45 -60 70 -86 26 -27 45 -56 45 -69 0 -13 5 -26 10
-29 6 -3 10 -14 10 -25 0 -10 7 -21 16 -24 24 -9 25 -8 19 17 -5 18 -1 26 19
35 26 11 26 11 26 -28 0 -45 23 -65 65 -54 14 3 62 1 107 -6 62 -10 83 -10 86
-2 2 7 26 12 58 12 41 0 52 -3 48 -13 -3 -9 14 -26 43 -45 52 -34 60 -34 44
-4 -15 28 -7 42 38 74 42 30 81 29 81 -2 0 -30 11 -50 27 -50 13 0 13 -3 3
-15 -14 -17 -1 -40 28 -50 10 -3 25 -19 34 -36 10 -16 22 -28 27 -24 14 8 51
-35 51 -61 0 -13 8 -24 20 -27 17 -4 20 -10 14 -34 -4 -15 -11 -33 -15 -39 -5
-6 -2 -20 7 -32 8 -12 13 -26 9 -31 -3 -5 2 -17 11 -26 9 -9 14 -18 11 -21 -3
-3 3 -21 13 -39 20 -35 17 -45 -12 -45 -10 0 -18 -4 -18 -10 0 -14 22 -12 43
4 17 13 17 15 -1 47 -10 19 -17 40 -14 47 2 7 -3 19 -13 25 -15 12 -15 14 4
31 12 11 21 27 21 38 0 10 4 18 8 18 14 0 102 87 102 101 0 8 11 15 25 15 35
2 75 48 75 85 0 16 5 29 10 29 6 0 10 -5 10 -10 0 -6 10 -8 23 -5 12 2 39 7
60 10 22 3 48 12 59 19 26 19 47 60 42 83 -3 14 11 26 60 51 36 17 78 32 93
32 15 0 33 4 38 8 17 12 34 56 33 85 -1 39 13 50 45 38 15 -6 27 -14 27 -18 0
-16 82 -95 111 -107 17 -7 37 -28 47 -47 9 -19 24 -34 32 -34 9 0 25 -10 37
-22 21 -21 23 -21 57 -5 29 14 34 21 31 43 -3 15 2 48 10 75 10 34 11 52 4 60
-6 7 -8 22 -4 34 5 14 2 20 -9 20 -9 0 -16 7 -16 15 0 8 5 15 10 15 6 0 10 11
10 25 0 14 -3 25 -7 25 -5 0 -9 10 -10 23 -7 68 -19 144 -26 154 -4 6 -3 14 2
17 19 12 -4 127 -39 196 -43 84 -46 114 -16 133 13 9 27 30 31 47 4 16 11 33
17 36 5 3 -1 12 -14 19 -19 10 -27 10 -46 -2 -30 -19 -56 -10 -43 14 4 10 18
37 30 59 11 23 21 51 21 62 0 30 21 72 35 72 7 0 20 17 29 38 9 20 21 44 26
52 6 8 14 25 20 38 5 12 14 22 20 22 5 0 10 9 10 19 0 11 10 32 23 48 31 37
36 53 26 81 -11 30 -35 28 -76 -9 -19 -16 -38 -28 -41 -25 -8 9 20 56 33 56
22 0 44 35 51 80 4 25 12 52 20 60 17 20 53 104 57 135 1 13 7 28 12 32 4 4 5
2 1 -4 -4 -7 -3 -13 3 -13 6 0 19 17 30 38 16 30 18 51 14 100 -3 34 -9 62
-13 62 -13 0 -18 38 -7 49 8 8 8 11 0 11 -18 0 -22 -26 -7 -54 7 -15 13 -30
12 -34 -1 -4 1 -26 5 -50 10 -57 -4 -79 -64 -107 -39 -18 -59 -36 -89 -81 -72
-109 -82 -118 -136 -121 -50 -2 -147 -10 -174 -15 -31 -5 -90 14 -90 29 0 11
-7 14 -27 10 -37 -7 -83 21 -83 49 0 12 -7 27 -15 34 -8 7 -15 25 -15 41 0 15
-5 31 -10 34 -6 4 -8 16 -4 27 4 15 -1 27 -22 44 -16 13 -37 23 -46 24 -10 0
-32 19 -49 43 -35 49 -87 66 -126 41 -20 -13 -25 -12 -43 6 -21 21 -21 21 -1
46 28 36 36 102 18 146 -14 34 -14 36 5 45 19 8 19 9 2 23 -10 8 -15 10 -11 3
4 -7 0 -16 -10 -21 -15 -9 -16 -13 -3 -36 23 -44 12 -149 -18 -165 -10 -5 -47
-4 -91 1 -89 12 -111 3 -148 -59 l-25 -43 -105 57 -105 56 -137 11 -137 11
-82 54 c-45 29 -82 59 -82 65 0 18 -54 156 -62 156 -4 0 6 -32 23 -71z m120
-164 l79 -54 125 -7 c69 -4 128 -11 131 -16 7 -11 -23 -100 -50 -148 -24 -42
-161 -170 -182 -170 -11 0 -10 8 1 41 8 23 15 42 15 44 0 1 -34 -5 -76 -12
l-76 -15 -37 36 c-24 23 -47 36 -71 38 -29 2 -34 7 -32 23 2 11 2 25 2 30 -1
6 -3 45 -6 88 -4 74 -2 81 26 122 28 40 42 52 63 54 5 1 45 -24 88 -54z m465
-133 c80 -42 107 -63 142 -106 23 -30 46 -66 52 -80 5 -14 16 -26 24 -26 13 0
26 -41 26 -84 0 -12 -9 -38 -20 -59 -11 -20 -20 -44 -20 -52 0 -10 -10 -15
-29 -15 -16 0 -45 -7 -64 -15 -20 -8 -47 -15 -61 -15 -13 0 -26 -7 -29 -15 -7
-16 -78 -55 -101 -55 -7 0 -36 19 -62 43 -27 24 -60 51 -74 60 -23 16 -25 22
-22 81 3 45 -1 73 -13 96 l-17 32 45 47 c50 51 80 105 98 175 6 26 15 46 19
44 4 -2 52 -27 106 -56z m334 35 c13 -7 32 -20 42 -29 22 -22 42 -23 58 -3 18
22 71 7 102 -29 31 -35 35 -51 12 -42 -22 8 -57 -12 -50 -30 3 -8 1 -27 -5
-42 -11 -27 -11 -27 -22 -5 -11 24 -40 38 -57 28 -5 -3 -10 -17 -10 -31 0 -30
-20 -32 -28 -2 -4 19 -8 14 -22 -27 -13 -39 -22 -51 -41 -53 -13 -2 -31 -10
-40 -18 -19 -17 -29 -9 -29 23 0 14 -6 23 -15 23 -8 0 -22 15 -31 33 -9 17
-32 51 -52 75 -32 41 -34 45 -21 69 8 15 26 39 41 55 26 28 30 29 85 23 32 -3
69 -12 83 -18z m296 -135 c30 -25 38 -75 15 -89 -10 -7 -22 -28 -25 -47 -4
-22 -13 -36 -21 -36 -8 0 -15 -7 -15 -16 0 -21 -30 -44 -47 -37 -7 3 -13 11
-13 19 0 8 -7 14 -15 14 -8 0 -15 6 -15 14 0 14 -51 38 -108 51 -28 6 -32 10
-26 28 9 30 12 33 26 19 19 -19 25 -14 32 23 8 41 29 38 53 -9 l16 -31 13 35
c7 19 13 45 13 58 1 20 6 22 49 22 30 -1 55 -7 68 -18z m-1173 -75 c48 -38 78
-52 86 -39 3 5 25 12 49 15 36 4 42 3 38 -10 -20 -50 -19 -63 6 -63 13 0 35
11 50 25 15 14 29 25 32 25 3 0 12 -13 20 -29 12 -22 15 -54 12 -125 -2 -60 0
-99 7 -103 7 -4 8 6 4 31 l-6 37 27 -21 c15 -11 55 -46 89 -77 68 -64 85 -106
46 -111 -13 -2 -23 -10 -23 -18 0 -8 -7 -26 -16 -39 l-16 -24 -30 35 c-16 18
-34 31 -40 28 -12 -7 -59 15 -71 33 -4 7 -17 13 -27 13 -24 0 -35 17 -22 33 5
7 11 21 13 31 4 18 5 19 21 3 9 -9 19 -17 22 -17 11 0 6 28 -6 32 -7 3 -5 13
7 31 10 16 13 27 6 27 -6 0 -17 -11 -23 -25 -8 -18 -17 -24 -30 -19 -16 5 -18
2 -13 -19 4 -14 2 -28 -4 -31 -6 -4 -11 -16 -11 -27 0 -30 -28 -22 -35 11 -8
37 -17 43 -50 30 -20 -8 -27 -7 -31 5 -4 8 -12 15 -18 15 -7 0 -25 14 -41 30
-36 37 -43 38 -37 1 3 -23 0 -29 -19 -34 -19 -5 -20 -8 -9 -21 7 -9 19 -16 27
-16 11 0 13 -7 9 -23 -4 -16 3 -36 20 -61 14 -20 23 -44 20 -52 -10 -25 -59
-12 -96 26 -19 20 -42 39 -51 42 -21 8 -54 127 -45 163 4 14 14 29 24 32 9 3
27 15 40 26 19 18 22 30 22 94 0 48 -6 85 -16 104 -12 24 -13 34 -3 45 19 22
48 16 92 -19z m1857 -1 c0 -20 -41 -118 -57 -138 -8 -9 -16 -33 -18 -54 -3
-29 -13 -46 -45 -75 -26 -24 -43 -48 -45 -66 -2 -15 -7 -40 -11 -55 -7 -32 4
-36 33 -10 16 14 18 21 9 36 -8 14 -8 20 2 23 7 3 26 16 42 30 16 13 34 22 40
18 18 -11 10 -51 -15 -75 -14 -13 -25 -34 -25 -48 0 -21 -4 -23 -24 -18 -20 5
-29 -1 -55 -41 -17 -25 -31 -55 -31 -65 0 -10 -7 -18 -16 -18 -12 0 -15 7 -12
25 4 20 1 25 -15 25 -11 0 -28 -7 -37 -15 -8 -8 -25 -12 -36 -9 -18 5 -20 11
-15 37 5 26 17 37 55 57 27 14 53 35 57 47 7 19 4 23 -24 29 -18 4 -26 9 -19
11 6 3 12 10 12 17 0 18 -24 66 -32 66 -5 0 -8 5 -8 10 0 6 7 10 15 10 8 0 15
4 15 10 0 16 43 50 64 50 20 1 68 54 125 139 36 55 71 78 71 47z m-636 -51 c4
-14 11 -25 16 -25 6 0 10 -11 10 -25 0 -18 9 -31 30 -43 16 -9 30 -25 30 -35
0 -23 -51 -101 -70 -106 -8 -2 -33 -7 -54 -11 -22 -4 -47 -18 -55 -29 -22 -29
-70 -53 -93 -45 -16 5 -17 8 -6 21 10 12 9 18 -6 28 -10 8 -24 11 -32 8 -11
-4 -14 3 -12 28 3 40 75 119 108 119 11 0 20 5 20 10 0 6 5 9 12 8 6 -2 14 6
16 17 2 11 10 24 18 28 8 4 14 12 14 17 0 23 21 60 34 60 7 0 17 -11 20 -25z
m-257 -34 c8 -10 12 -11 13 -4 0 18 50 -6 50 -24 0 -7 7 -13 15 -13 24 0 17
-23 -20 -66 -35 -40 -37 -41 -75 -31 -35 10 -41 9 -59 -14 -15 -17 -20 -36
-19 -64 2 -23 -1 -38 -7 -35 -5 3 -8 13 -7 23 2 10 -3 17 -12 17 -16 0 -35 49
-35 95 0 17 -3 46 -6 66 -6 30 -3 38 17 51 47 31 121 30 145 -1z m393 -86 c0
-8 12 -17 28 -21 53 -11 54 -13 47 -42 -3 -15 -13 -40 -20 -57 -7 -16 -16 -42
-19 -57 -4 -19 -13 -28 -26 -28 -29 0 -29 -69 0 -77 18 -5 17 -9 -16 -49 -34
-41 -38 -64 -11 -64 7 0 18 -9 25 -21 12 -19 15 -20 31 -5 17 16 19 15 25 -6
10 -37 8 -41 -38 -91 -32 -35 -53 -49 -80 -54 -30 -5 -35 -3 -31 9 8 21 -42
60 -67 53 -11 -4 -18 -1 -18 7 0 28 -19 40 -71 46 l-54 7 0 80 c0 70 3 83 23
106 22 25 22 28 7 37 -19 10 -12 32 10 32 8 0 21 10 29 23 10 14 37 27 73 37
48 13 61 21 84 55 15 22 30 52 33 68 6 28 36 39 36 12z m-558 -36 c-11 -28 10
-87 33 -95 8 -4 12 -10 9 -15 -9 -16 15 -37 36 -32 21 5 28 23 10 23 -16 0
-12 53 6 79 13 18 22 21 43 16 34 -9 42 -23 35 -62 -6 -30 -4 -33 19 -33 14 0
28 -4 31 -9 7 -11 -58 -51 -82 -51 -9 0 -28 -12 -43 -26 -23 -22 -30 -24 -49
-14 -26 14 -38 6 -20 -15 11 -13 8 -16 -19 -21 -17 -4 -31 -8 -31 -9 0 -15 15
-35 26 -35 10 0 10 -9 -3 -44 l-17 -45 -41 25 c-23 13 -45 24 -49 24 -4 0 -7
-19 -6 -42 3 -62 1 -68 -12 -68 -7 -1 -22 -15 -33 -32 -26 -41 -45 -47 -45
-14 0 15 -6 26 -14 26 -8 0 -12 8 -9 23 3 17 -6 34 -33 61 -35 35 -41 37 -80
31 -51 -7 -65 13 -34 52 11 14 20 32 20 41 0 9 7 13 20 9 28 -7 38 36 17 72
-15 26 -15 26 29 45 24 10 49 26 54 36 5 10 20 18 33 18 13 0 40 7 60 17 21 9
49 15 63 12 25 -4 32 3 38 35 4 24 30 58 39 49 4 -4 4 -19 -1 -32z m806 2
c-13 -17 -28 -30 -35 -30 -21 -1 -27 -24 -10 -36 10 -7 17 -17 17 -24 0 -6 5
-11 10 -11 15 0 12 -20 -7 -38 -16 -16 -15 -17 2 -21 23 -4 53 -33 40 -38 -58
-21 -100 -52 -103 -75 -2 -14 -12 -34 -23 -44 -10 -9 -19 -24 -19 -32 0 -12
-4 -12 -25 2 -24 16 -26 16 -50 -11 -13 -15 -25 -22 -25 -15 0 7 -12 17 -27
23 l-26 10 38 39 c38 39 43 70 10 70 -22 0 -19 38 4 45 14 4 27 27 41 73 40
126 38 122 84 123 32 0 103 10 124 18 2 0 -7 -12 -20 -28z m-1754 -206 c16
-48 8 -75 -29 -99 -20 -13 -24 -22 -19 -39 7 -24 21 -34 74 -57 44 -19 110
-71 110 -87 0 -6 10 -28 22 -48 17 -31 19 -38 7 -46 -8 -5 -20 -9 -26 -9 -7 0
-13 -3 -13 -7 0 -5 -3 -18 -6 -30 -5 -18 -2 -23 14 -23 27 0 30 -5 33 -65 2
-37 -1 -49 -11 -47 -7 2 -32 -6 -56 -18 -66 -31 -77 -28 -69 19 6 37 4 42 -42
88 -26 26 -56 59 -66 71 -14 18 -24 22 -40 17 -12 -3 -28 -7 -36 -8 -18 -3
-101 149 -101 185 0 15 -4 30 -10 33 -15 9 -13 92 3 98 9 3 9 8 -2 21 -17 20
-7 33 29 38 17 2 26 10 28 25 3 18 12 23 47 29 24 3 48 3 54 0 6 -4 25 10 43
30 l33 37 8 -34 c4 -19 14 -52 21 -74z m201 65 c4 0 13 -8 20 -17 11 -15 17
-15 39 -5 25 11 27 10 36 -16 6 -15 17 -43 25 -62 8 -19 17 -46 19 -60 2 -15
10 -25 19 -24 12 1 14 -6 10 -35 -8 -60 -11 -64 -41 -57 -15 4 -34 16 -44 26
-28 34 -88 23 -88 -15 0 -25 30 -85 43 -85 20 0 3 -18 -30 -29 -33 -12 -38
-12 -50 5 -7 10 -13 24 -13 31 0 22 -69 76 -124 99 -62 25 -70 49 -28 86 17
14 32 32 34 40 3 8 19 -1 47 -30 33 -33 49 -42 77 -42 44 0 53 20 28 68 -10
21 -19 46 -20 57 -3 50 -4 54 -18 49 -8 -3 -17 -1 -21 5 -3 7 2 11 13 11 16 0
19 5 15 23 l-6 22 25 -22 c13 -13 28 -23 33 -23z m977 -161 c-4 -109 4 -135
49 -151 25 -8 28 -13 17 -25 -11 -13 -14 -13 -28 3 -32 40 -96 74 -135 74 -21
0 -53 5 -71 12 l-31 11 12 54 c7 30 14 55 16 56 38 25 138 67 154 65 19 -3 20
-9 17 -99z m-777 69 c5 -4 25 -19 43 -34 17 -14 32 -21 32 -16 0 22 31 4 56
-34 l27 -39 -27 -48 c-20 -37 -24 -52 -16 -66 5 -11 14 -21 19 -23 5 -1 12
-19 16 -39 6 -35 5 -37 -39 -62 l-45 -25 -16 25 c-12 18 -16 41 -13 81 3 54 2
57 -21 60 -38 6 -48 21 -40 66 3 23 10 49 14 59 5 13 2 17 -13 17 -23 0 -34
23 -30 67 2 25 6 29 22 25 12 -3 25 -9 31 -14z m1480 -31 c-16 -23 -18 -28
-41 -85 -8 -18 -18 -31 -23 -27 -11 6 -41 -45 -41 -69 0 -9 -7 -33 -16 -55
-17 -44 -28 -45 -76 -5 -16 13 -44 28 -63 35 -28 10 -35 18 -34 39 0 14 -3 38
-7 54 -6 26 -5 27 14 17 30 -16 42 -14 42 10 0 18 4 20 45 13 36 -5 46 -3 51
10 10 25 34 19 34 -9 0 -36 37 -34 51 3 16 42 60 102 71 96 5 -3 2 -15 -7 -27z
m-1222 -111 c9 -7 17 -18 17 -25 0 -6 6 -11 14 -11 17 0 28 -27 21 -51 -5 -14
-1 -19 10 -19 13 0 16 -6 12 -22 -4 -12 -1 -28 6 -36 7 -8 17 -45 23 -81 6
-36 14 -73 18 -82 6 -13 0 -18 -28 -23 -40 -8 -45 -24 -22 -67 11 -22 11 -30
0 -50 -20 -37 -17 -42 24 -35 61 11 72 16 72 34 1 16 2 16 14 0 16 -21 54 -24
62 -4 5 12 9 12 32 0 15 -8 35 -14 44 -14 29 0 19 -68 -12 -83 -14 -7 -32 -27
-40 -44 -8 -18 -20 -33 -27 -33 -7 0 -10 -7 -7 -15 4 -8 1 -15 -6 -15 -7 0 -9
-8 -5 -19 7 -24 -23 -43 -62 -38 -24 3 -30 13 -57 95 -26 76 -37 96 -65 117
-42 30 -51 31 -51 6 0 -19 -1 -19 -52 -2 -44 15 -54 22 -56 44 -3 23 -6 25
-28 17 -42 -16 -64 -12 -64 11 0 15 -5 19 -15 15 -11 -4 -15 2 -15 24 0 19 5
30 14 30 11 0 13 16 9 78 -4 70 -3 75 11 57 13 -18 17 -19 38 -6 13 8 35 21
51 29 23 12 27 20 27 57 0 34 -5 47 -20 55 -24 13 -25 23 -2 71 17 37 19 38
87 47 6 1 18 -5 28 -12z m329 -50 c7 -2 20 -6 28 -9 33 -12 88 -15 99 -4 8 8
11 7 11 -5 0 -9 15 -25 34 -36 25 -15 38 -32 47 -61 10 -33 15 -39 26 -30 7 6
13 16 13 21 0 6 14 26 30 45 17 18 30 38 30 43 0 6 5 10 10 10 6 0 10 -9 10
-19 0 -15 7 -19 31 -19 17 1 35 -5 40 -13 12 -19 11 -29 -1 -29 -5 0 -10 -4
-10 -10 0 -5 18 -10 40 -10 39 0 40 -1 40 -35 0 -19 -4 -35 -8 -35 -5 0 -14
-11 -20 -25 -10 -21 -15 -23 -36 -15 -28 10 -30 8 -40 -33 -4 -19 -2 -33 9
-43 19 -20 19 -44 0 -44 -8 0 -15 -7 -15 -16 0 -12 -11 -15 -57 -14 -72 3
-104 -5 -120 -27 -18 -23 -17 -32 13 -92 14 -29 24 -54 22 -56 -2 -1 -17 2
-34 6 -27 8 -31 13 -27 36 3 24 2 25 -6 8 -17 -35 -12 -44 27 -54 63 -18 65
-14 27 67 -17 36 -22 59 -16 70 16 29 69 38 165 28 78 -9 91 -8 100 6 8 14 15
9 43 -27 38 -50 41 -65 13 -65 -14 0 -20 -7 -20 -23 0 -19 15 -30 82 -62 45
-22 95 -51 112 -65 l30 -25 -60 -11 c-47 -8 -59 -14 -58 -28 2 -14 -3 -16 -28
-10 -30 6 -30 5 -23 -22 5 -16 9 -48 9 -70 1 -38 -1 -43 -31 -53 -22 -8 -33
-19 -33 -32 0 -10 -5 -19 -11 -19 -8 0 -8 -4 0 -14 19 -23 -17 -76 -52 -76
-16 0 -52 -11 -80 -24 -75 -35 -83 -35 -114 3 -16 18 -49 41 -73 50 -45 17
-45 17 -42 59 3 31 0 42 -11 42 -8 0 -28 14 -46 30 -23 22 -31 39 -31 65 0 23
-8 42 -26 60 -31 31 -24 45 25 45 20 0 45 6 54 13 16 11 16 18 6 66 -11 51
-10 54 16 81 15 16 25 34 22 42 -4 9 -6 7 -6 -4 -1 -10 -5 -18 -10 -18 -5 0
-19 -14 -32 -31 -16 -23 -19 -33 -10 -42 6 -6 11 -28 11 -49 0 -32 -4 -39 -25
-44 -14 -3 -34 -4 -45 -1 -23 6 -45 -17 -36 -39 4 -11 2 -15 -8 -11 -8 3 -26
-3 -40 -14 -24 -19 -45 -11 -31 11 3 6 -1 10 -9 10 -20 0 -20 -5 0 -35 16 -24
16 -24 37 -5 44 42 87 21 94 -44 3 -25 10 -46 15 -46 4 0 13 -11 18 -25 6 -15
17 -25 30 -25 17 0 20 -7 20 -40 0 -37 3 -41 38 -55 54 -22 63 -28 95 -67 25
-31 28 -42 23 -75 -9 -49 -45 -67 -133 -68 -35 0 -64 -4 -64 -10 -1 -5 -3 -21
-4 -34 -3 -28 -28 -50 -67 -58 -16 -3 -28 -11 -28 -18 0 -16 -79 -99 -103
-108 -10 -4 -17 -15 -15 -24 2 -10 -4 -19 -15 -21 -17 -3 -18 0 -12 30 4 18
11 38 17 45 6 7 1 19 -16 36 -14 14 -22 28 -19 31 9 9 -37 56 -64 67 -13 5
-23 15 -23 23 0 8 -16 23 -35 32 -36 17 -43 28 -25 39 15 9 12 25 -5 25 -8 0
-16 6 -16 13 -1 14 -5 28 -9 40 -4 10 -7 25 -9 37 0 6 -8 10 -16 10 -9 0 -12
-6 -8 -17 4 -11 3 -14 -5 -9 -23 14 -112 -54 -112 -86 0 -18 -1 -18 -25 -1
-40 29 -34 70 17 116 l43 38 -50 -8 c-93 -14 -120 -11 -123 14 -2 16 8 32 34
55 21 18 42 38 48 44 8 8 14 7 23 -5 10 -14 12 -14 19 4 11 28 24 35 51 24 20
-7 25 -4 42 30 32 63 33 176 2 186 -10 3 -22 17 -25 31 -4 13 -17 29 -30 34
-13 5 -27 13 -31 19 -3 6 0 9 8 5 10 -4 16 5 21 29 3 18 12 41 19 51 11 16 16
15 71 -4 71 -24 76 -24 76 -5 0 21 10 18 42 -10 28 -24 51 -74 69 -150 14 -56
28 -64 89 -52 46 9 49 12 44 33 -4 15 -2 24 6 24 7 0 10 7 6 15 -3 8 -2 15 3
15 5 0 14 14 21 30 7 17 16 30 21 30 5 0 19 9 32 20 18 16 23 30 22 58 -2 32
-7 38 -31 43 -16 3 -39 11 -51 17 -28 16 -33 15 -33 -3 0 -8 -7 -15 -16 -15
-8 0 -22 7 -30 15 -20 19 -34 19 -34 0 0 -8 -12 -17 -27 -21 -16 -3 -34 -7
-40 -10 -16 -4 -16 1 -2 27 8 16 7 29 -5 54 -9 18 -16 36 -16 39 0 3 18 10 40
16 38 10 39 12 28 33 -7 12 -18 53 -24 92 -10 67 -10 70 12 88 13 9 25 26 29
36 3 10 15 21 27 24 18 5 20 11 14 42 -4 19 -4 40 -1 45 4 6 31 -3 65 -21 33
-17 65 -32 72 -33z m-708 19 c9 -14 20 -24 24 -24 25 4 53 -3 68 -18 9 -10 26
-17 38 -18 18 0 20 -5 17 -45 -1 -25 -6 -49 -10 -53 -4 -4 -2 -29 4 -55 20
-76 10 -87 -71 -85 -38 1 -92 4 -121 8 -43 5 -52 10 -55 28 -2 14 -11 23 -25
25 -35 5 -26 34 15 47 19 5 22 12 18 30 -5 19 0 25 39 39 l44 17 -29 41 c-43
59 -39 81 16 87 7 0 19 -10 28 -24z m-491 -139 c15 -27 41 -59 59 -72 29 -22
30 -24 10 -24 -12 0 -31 5 -41 12 -16 10 -25 7 -55 -18 -40 -33 -54 -67 -36
-89 11 -13 5 -15 -38 -15 -40 0 -53 -4 -62 -19 -14 -28 -14 -28 24 -41 51 -17
60 -32 39 -69 -15 -26 -16 -33 -4 -40 7 -5 9 -11 4 -14 -5 -3 -15 -2 -23 3 -7
4 -19 6 -26 3 -8 -3 -21 22 -38 77 -14 44 -32 93 -40 109 -14 26 -13 29 25 77
21 27 39 58 39 70 0 12 10 25 24 32 16 7 32 32 52 82 l28 71 16 -43 c9 -24 29
-65 43 -92z m1835 60 c27 -14 54 -32 61 -40 8 -9 20 -16 27 -16 19 0 17 -34
-4 -69 -16 -26 -20 -28 -40 -17 -12 7 -19 16 -15 20 4 4 1 7 -7 5 -28 -6 -137
12 -155 25 -16 11 -14 17 31 64 27 29 50 52 52 52 1 0 24 -11 50 -24z m-1691
-147 c7 -13 31 -40 54 -61 37 -32 40 -39 34 -67 -4 -18 -18 -39 -33 -49 -15
-9 -32 -23 -38 -31 -14 -18 -6 -51 12 -51 16 0 19 -46 3 -55 -5 -4 -9 -17 -7
-28 5 -39 -8 -46 -47 -28 -19 9 -34 22 -35 30 0 21 -30 51 -52 51 -24 0 -23
12 2 30 11 8 20 22 20 32 0 10 9 18 23 20 15 2 21 9 19 22 -3 15 1 17 22 12
19 -5 28 -1 36 14 9 18 5 27 -30 63 -33 33 -41 48 -37 70 2 16 -2 32 -10 39
-11 9 -11 13 -2 19 19 11 53 -5 66 -32z m1627 20 c16 -5 31 -7 34 -5 2 3 24
-4 50 -15 49 -21 72 -19 72 6 0 12 6 15 21 10 12 -4 32 -1 45 6 13 7 27 10 30
6 12 -12 -9 -68 -32 -83 -33 -22 -31 -55 11 -143 19 -40 33 -77 30 -81 -3 -5
0 -21 6 -37 6 -15 12 -38 14 -51 2 -20 -1 -22 -31 -18 -32 3 -34 1 -34 -25 0
-28 -13 -36 -36 -21 -19 12 -25 49 -12 77 10 23 10 29 -5 40 -9 7 -17 20 -17
29 0 9 -4 16 -10 16 -5 0 -10 5 -10 11 0 6 9 8 21 4 23 -8 39 7 39 36 0 12
-11 16 -46 18 -59 2 -64 5 -64 44 0 26 -6 35 -30 45 -17 8 -30 21 -30 31 0 13
-13 21 -50 29 -27 6 -56 9 -64 6 -24 -9 -27 12 -6 39 11 14 20 30 20 36 0 12
27 8 84 -10z m-1735 -31 c6 -7 17 -13 23 -13 6 0 12 -10 13 -22 1 -13 19 -38
40 -56 29 -25 37 -38 31 -52 -5 -14 -9 -16 -18 -7 -17 17 -23 15 -36 -13 -6
-14 -18 -25 -27 -25 -8 0 -15 -7 -15 -15 0 -9 -16 -32 -35 -52 -19 -20 -39
-50 -44 -67 -7 -25 -9 -27 -10 -8 -1 24 -20 29 -39 10 -9 -9 -15 -9 -23 -1 -8
8 -5 13 10 18 26 8 27 21 4 34 -17 9 -17 11 1 29 26 30 16 54 -33 77 -38 19
-41 22 -27 34 11 10 32 12 66 8 28 -3 50 -4 50 -1 0 3 -7 18 -16 34 -17 27
-16 28 17 63 37 39 49 43 68 25z m1613 -44 c21 -11 33 -12 37 -5 10 15 83 -9
88 -29 3 -9 17 -24 33 -33 23 -14 28 -23 25 -47 -4 -32 3 -36 70 -42 33 -3 37
-21 5 -26 -19 -3 -31 -42 -12 -42 15 0 34 -60 27 -89 -3 -17 -1 -39 5 -51 18
-33 6 -34 -29 -2 -17 15 -67 46 -111 67 -44 21 -80 42 -80 46 0 4 9 11 20 14
28 9 25 29 -10 80 -35 51 -49 62 -60 46 -10 -16 -80 -25 -80 -10 0 7 8 18 18
25 15 12 16 15 2 41 -18 33 -15 73 6 73 8 0 29 -7 46 -16z m-1157 -30 c17 -2
54 -4 84 -4 50 0 53 -1 47 -23 -3 -12 -6 -30 -6 -39 0 -13 -8 -18 -31 -18 -23
0 -30 -4 -26 -14 3 -8 -1 -17 -9 -20 -9 -4 -14 -17 -13 -33 1 -16 1 -43 1 -60
-2 -38 -17 -41 -84 -21 -40 12 -41 11 -72 -24 -40 -44 -66 -116 -47 -127 9 -6
11 -22 5 -56 l-7 -48 27 7 c28 7 29 5 40 -46 5 -20 13 -28 27 -28 11 0 30 -5
41 -11 17 -9 24 -7 43 17 l23 29 26 -24 c34 -32 33 -51 -4 -86 -18 -18 -30
-39 -30 -55 0 -43 14 -49 88 -35 l67 13 -39 -33 c-22 -19 -36 -37 -32 -44 5
-8 -11 -11 -53 -11 -38 0 -61 -4 -61 -11 0 -8 -12 -9 -37 -4 -87 16 -143 21
-152 12 -5 -5 -17 -4 -30 2 -17 9 -21 21 -21 57 0 44 -1 45 -21 30 -16 -11
-28 -12 -46 -5 -19 7 -24 6 -20 -3 2 -7 8 -12 13 -11 5 1 9 -10 9 -23 0 -13
-1 -24 -2 -24 -7 0 -33 67 -33 85 0 13 -7 28 -16 35 -8 8 -20 22 -25 33 -10
18 -8 19 39 12 56 -7 50 -15 68 88 l6 38 -36 -6 c-24 -5 -36 -3 -36 4 0 7 20
11 50 11 l50 0 0 39 c0 25 -5 41 -15 45 -11 4 -13 16 -9 50 5 35 2 52 -15 79
-11 19 -21 48 -21 66 0 17 -5 31 -10 31 -6 0 -13 7 -16 15 -9 23 33 55 73 55
19 0 51 9 73 20 25 13 41 16 45 9 5 -7 11 -6 21 2 10 8 12 22 8 47 l-7 35 39
-8 c22 -4 53 -9 69 -11z m132 -100 c19 -5 22 -11 16 -33 -6 -23 -5 -25 10 -12
14 11 18 11 23 -5 3 -11 9 -26 14 -35 12 -23 1 -61 -16 -55 -8 3 -14 1 -14 -5
0 -20 21 -49 36 -49 8 0 19 -12 25 -27 5 -14 17 -32 26 -38 13 -10 24 -46 24
-80 0 -5 -5 -32 -11 -58 -12 -50 -31 -67 -53 -49 -14 12 -47 -8 -47 -29 0 -11
-2 -11 -10 1 -7 12 -12 12 -22 2 -16 -16 -28 -15 -28 2 0 8 -11 23 -25 34 -14
11 -25 30 -25 43 0 20 -4 18 -23 -16 -21 -37 -67 -62 -67 -36 0 6 -9 11 -20
11 -19 0 -24 9 -21 36 1 6 -9 19 -23 27 -18 12 -26 13 -36 4 -10 -10 -11 -8
-5 8 18 46 18 68 0 81 -16 12 -16 15 4 57 12 24 32 54 45 66 22 20 26 21 72 9
62 -15 60 -14 40 -37 -28 -31 2 -37 33 -7 25 24 31 26 55 15 14 -7 28 -10 31
-8 4 5 12 39 14 62 1 4 10 7 21 7 11 0 20 4 20 8 0 13 -55 8 -56 -5 -1 -7 -2
-25 -3 -40 -1 -21 -4 -24 -13 -15 -17 17 -57 15 -64 -3 -4 -8 -10 -15 -15 -15
-6 0 -4 10 2 23 7 12 13 46 14 76 0 33 6 56 13 59 7 2 12 10 12 18 0 15 12 17
47 8z m113 -34 c0 -10 -36 -50 -45 -50 -10 0 -5 36 7 48 15 15 38 16 38 2z
m-692 -90 c17 -11 32 -28 32 -37 0 -18 85 -61 97 -49 3 3 6 19 5 35 0 21 3 28
13 25 19 -8 33 -53 28 -95 -3 -22 0 -41 9 -50 7 -8 14 -27 16 -43 3 -28 2 -29
-37 -23 -26 3 -44 1 -51 -8 -14 -16 -1 -48 16 -41 8 3 20 9 28 12 10 4 12 -2
9 -23 -12 -76 -9 -73 -66 -73 -60 0 -74 9 -106 63 -13 20 -26 37 -31 37 -5 0
-15 7 -24 15 -12 12 -13 21 -4 46 8 24 8 33 -3 39 -7 5 -17 6 -21 4 -5 -3 -11
2 -14 10 -3 9 -11 13 -17 9 -6 -4 -8 3 -3 21 6 25 0 31 -30 27 -7 -1 -14 11
-17 26 -3 16 -8 38 -12 51 -10 30 8 28 25 -3 13 -24 15 -24 37 -10 21 14 23
14 23 -4 0 -11 9 -21 21 -24 17 -5 20 -2 16 15 -6 22 8 68 20 68 5 0 23 -9 41
-20z m2002 -119 c7 -17 9 -43 5 -61 -5 -23 -2 -36 10 -50 10 -11 15 -26 12
-33 -3 -8 -1 -19 4 -24 5 -5 4 -22 -3 -41 -11 -27 -10 -34 1 -41 9 -6 11 -18
7 -36 -6 -22 -4 -26 8 -22 19 8 19 9 1 -43 -8 -23 -16 -56 -17 -72 -3 -39 -45
-59 -65 -32 -7 10 -13 21 -13 25 0 4 -8 5 -18 2 -14 -3 -23 5 -35 30 -15 31
-46 52 -70 48 -5 -1 -11 7 -14 18 -3 11 -13 23 -22 26 -9 3 -25 19 -36 36 -11
17 -29 35 -40 39 -15 7 -16 9 -4 9 12 1 16 12 17 48 0 25 -3 56 -8 68 -7 19
-5 21 21 17 24 -4 29 -1 29 17 0 17 6 21 33 21 17 0 59 9 92 19 51 16 60 22
57 40 -5 34 33 27 48 -8z"/>
<path d="M1802 1199 c-13 -5 -21 -13 -17 -19 4 -6 15 -4 29 5 12 8 26 12 29 8
4 -3 7 -1 7 5 0 14 -16 14 -48 1z"/>
<path d="M1140 2659 c0 -15 5 -20 23 -17 12 2 25 8 29 13 5 7 8 6 8 0 0 -15
50 -17 50 -2 0 8 4 7 10 -3 9 -13 11 -13 20 0 6 10 10 11 10 3 0 -7 5 -13 10
-13 16 0 11 30 -5 31 -53 5 -75 3 -75 -6 0 -7 -3 -7 -8 0 -4 6 -22 11 -39 13
-27 2 -33 -1 -33 -19z"/>
<path d="M1330 2658 c0 -21 0 -21 15 -2 11 15 14 16 15 3 0 -23 140 -22 140 1
0 9 -7 17 -15 17 -8 0 -15 -4 -15 -8 0 -4 -14 -4 -32 1 -19 6 -36 6 -43 0 -6
-5 -16 -5 -25 0 -25 16 -40 11 -40 -12z"/>
<path d="M2190 2439 c0 -13 7 -19 24 -19 13 0 27 6 29 13 4 10 6 10 6 0 1 -20
101 -17 101 2 0 22 -68 23 -82 1 -5 -7 -8 -6 -8 4 0 10 -12 16 -35 17 -29 1
-35 -2 -35 -18z"/>
<path d="M2370 2446 c-13 -16 -3 -26 27 -26 13 0 23 6 23 14 0 18 -37 27 -50
12z"/>
<path d="M2440 2444 c0 -16 6 -21 30 -22 34 -1 42 23 10 31 -11 3 -20 0 -20
-6 0 -7 -5 -5 -10 3 -8 12 -10 11 -10 -6z"/>
<path d="M2510 2435 c0 -9 15 -13 45 -12 27 0 45 5 45 12 0 7 -18 12 -45 12
-30 1 -45 -3 -45 -12z"/>
<path d="M60 2041 c0 -21 13 -34 24 -24 3 3 35 5 71 4 53 -2 65 0 65 13 0 9
-5 16 -11 16 -5 0 -7 -6 -3 -12 6 -10 4 -10 -7 0 -7 6 -17 12 -22 12 -4 0 -5
-6 -1 -12 6 -10 4 -10 -7 0 -7 6 -21 12 -30 12 -10 0 -20 -6 -22 -12 -4 -10
-6 -10 -6 0 -1 7 -5 10 -11 7 -5 -3 -10 -1 -10 4 0 6 -7 11 -15 11 -8 0 -15
-9 -15 -19z"/>
<path d="M310 2040 c0 -17 6 -20 45 -18 32 1 45 5 45 16 0 8 -6 12 -14 9 -8
-3 -17 -1 -20 6 -3 9 -5 9 -5 0 -1 -9 -8 -10 -26 -3 -21 8 -25 7 -25 -10z"/>
<path d="M240 2035 c0 -9 9 -15 25 -15 16 0 25 6 25 15 0 9 -9 15 -25 15 -16
0 -25 -6 -25 -15z"/>
<path d="M410 2035 c0 -10 11 -15 35 -15 35 0 46 12 23 26 -6 4 -14 2 -16 -4
-2 -7 -8 -12 -13 -12 -6 0 -7 5 -4 10 3 6 -1 10 -9 10 -9 0 -16 -7 -16 -15z"/>
<path d="M2690 1162 c0 -15 11 -18 80 -20 66 -2 80 0 80 13 0 18 -16 20 -23 3
-3 -7 -6 -4 -6 6 -1 20 -1 20 -17 0 -8 -10 -13 -14 -10 -7 4 6 2 14 -4 18 -5
3 -10 2 -10 -4 0 -5 -9 -8 -20 -6 -11 2 -20 -1 -20 -6 0 -6 -7 -3 -16 5 -20
21 -34 20 -34 -2z"/>
<path d="M765 340 c-11 -18 4 -28 45 -27 26 1 40 5 40 14 0 17 -30 17 -30 1 0
-7 -5 -5 -11 5 -11 19 -34 23 -44 7z"/>
<path d="M861 323 c0 -13 2 -14 6 -4 5 11 7 11 14 0 7 -12 9 -11 9 1 0 12 2
12 8 2 7 -10 15 -10 36 -2 17 6 25 6 21 0 -3 -6 -1 -10 4 -10 6 0 11 7 11 15
0 12 -13 15 -55 15 -46 0 -55 -3 -54 -17z"/>
</g>
</svg>
